<mxfile host="drawio-plugin" modified="2021-12-21T08:28:06.780Z" agent="5.0 (Macintosh; Intel Mac OS X 11_6_0) AppleWebKit/537.36 (KHTML, like Gecko) Chrome/89.0.4389.114 Safari/537.36" etag="Ch5jsyxn_7B1-Vp8TIPE" version="14.7.4" type="embed"><diagram id="7pMcRzmeSCS7Ap43zZdk" name="第 1 页"><mxGraphModel dx="926" dy="813" grid="1" gridSize="10" guides="1" tooltips="1" connect="1" arrows="1" fold="1" page="1" pageScale="1" pageWidth="1169" pageHeight="827" math="0" shadow="0"><root><mxCell id="0"/><mxCell id="1" parent="0"/><mxCell id="tkLixBNZ9ediH_jxy_YY-191" value="" style="rounded=1;whiteSpace=wrap;html=1;fillColor=#d5e8d4;strokeColor=#82b366;" parent="1" vertex="1"><mxGeometry x="870" y="399.25" width="100" height="170" as="geometry"/></mxCell><mxCell id="tkLixBNZ9ediH_jxy_YY-192" value="&lt;font style=&quot;font-size: 16px&quot;&gt;reducer 2&lt;/font&gt;" style="text;html=1;strokeColor=none;fillColor=none;align=center;verticalAlign=middle;whiteSpace=wrap;rounded=0;" parent="1" vertex="1"><mxGeometry x="877.5" y="404.25" width="85" height="20" as="geometry"/></mxCell><mxCell id="tkLixBNZ9ediH_jxy_YY-189" value="" style="rounded=1;whiteSpace=wrap;html=1;fillColor=#d5e8d4;strokeColor=#82b366;" parent="1" vertex="1"><mxGeometry x="870" y="216.75" width="100" height="170" as="geometry"/></mxCell><mxCell id="tkLixBNZ9ediH_jxy_YY-22" value="" style="rounded=1;whiteSpace=wrap;html=1;fillColor=#d5e8d4;strokeColor=#82b366;" parent="1" vertex="1"><mxGeometry x="190" y="89" width="140" height="210" as="geometry"/></mxCell><mxCell id="tkLixBNZ9ediH_jxy_YY-14" value="" style="rounded=0;whiteSpace=wrap;html=1;fillColor=#f8cecc;strokeColor=#b85450;gradientColor=#ea6b66;" parent="1" vertex="1"><mxGeometry x="200" y="129" width="120" height="80" as="geometry"/></mxCell><mxCell id="tkLixBNZ9ediH_jxy_YY-15" value="batch 1" style="rounded=0;whiteSpace=wrap;html=1;fillColor=#d80073;strokeColor=#A50040;fontColor=#ffffff;" parent="1" vertex="1"><mxGeometry x="215" y="154" width="90" height="25" as="geometry"/></mxCell><mxCell id="tkLixBNZ9ediH_jxy_YY-16" value="batch 4" style="rounded=0;whiteSpace=wrap;html=1;fillColor=#0050ef;strokeColor=#001DBC;fontColor=#ffffff;" parent="1" vertex="1"><mxGeometry x="215" y="179" width="90" height="25" as="geometry"/></mxCell><mxCell id="tkLixBNZ9ediH_jxy_YY-17" value="&lt;font style=&quot;font-size: 16px&quot;&gt;partition 1&lt;/font&gt;" style="text;html=1;strokeColor=none;fillColor=none;align=center;verticalAlign=middle;whiteSpace=wrap;rounded=0;" parent="1" vertex="1"><mxGeometry x="225" y="132" width="75" height="20" as="geometry"/></mxCell><mxCell id="tkLixBNZ9ediH_jxy_YY-18" value="" style="rounded=0;whiteSpace=wrap;html=1;fillColor=#ffcd28;strokeColor=#d79b00;gradientColor=#ffa500;" parent="1" vertex="1"><mxGeometry x="200" y="209" width="120" height="80" as="geometry"/></mxCell><mxCell id="tkLixBNZ9ediH_jxy_YY-19" value="batch 2" style="rounded=0;whiteSpace=wrap;html=1;fillColor=#6a00ff;strokeColor=#3700CC;fontColor=#ffffff;" parent="1" vertex="1"><mxGeometry x="215" y="232.5" width="90" height="25" as="geometry"/></mxCell><mxCell id="tkLixBNZ9ediH_jxy_YY-20" value="batch 3" style="rounded=0;whiteSpace=wrap;html=1;fillColor=#a20025;strokeColor=#6F0000;fontColor=#ffffff;" parent="1" vertex="1"><mxGeometry x="215" y="257.5" width="90" height="25" as="geometry"/></mxCell><mxCell id="tkLixBNZ9ediH_jxy_YY-21" value="&lt;font style=&quot;font-size: 16px&quot;&gt;partition 2&lt;/font&gt;" style="text;html=1;strokeColor=none;fillColor=none;align=center;verticalAlign=middle;whiteSpace=wrap;rounded=0;" parent="1" vertex="1"><mxGeometry x="222.5" y="212.5" width="75" height="20" as="geometry"/></mxCell><mxCell id="tkLixBNZ9ediH_jxy_YY-23" value="&lt;font style=&quot;font-size: 16px&quot;&gt;mapper 1.0&lt;/font&gt;" style="text;html=1;strokeColor=none;fillColor=none;align=center;verticalAlign=middle;whiteSpace=wrap;rounded=0;" parent="1" vertex="1"><mxGeometry x="217.5" y="99" width="85" height="20" as="geometry"/></mxCell><mxCell id="tkLixBNZ9ediH_jxy_YY-41" value="" style="rounded=1;whiteSpace=wrap;html=1;fillColor=#dae8fc;strokeColor=#6c8ebf;" parent="1" vertex="1"><mxGeometry x="440" y="273" width="320" height="180" as="geometry"/></mxCell><mxCell id="tkLixBNZ9ediH_jxy_YY-42" value="2&lt;br&gt;(mapId)" style="rounded=0;whiteSpace=wrap;html=1;fillColor=#6a00ff;strokeColor=#3700CC;fontColor=#ffffff;" parent="1" vertex="1"><mxGeometry x="450" y="313" width="50" height="32" as="geometry"/></mxCell><mxCell id="tkLixBNZ9ediH_jxy_YY-43" value="0&lt;br&gt;(attemptId)" style="rounded=0;whiteSpace=wrap;html=1;fillColor=#6a00ff;strokeColor=#3700CC;fontColor=#ffffff;" parent="1" vertex="1"><mxGeometry x="500" y="313" width="60" height="32" as="geometry"/></mxCell><mxCell id="tkLixBNZ9ediH_jxy_YY-44" value="1&lt;br&gt;(batchId)" style="rounded=0;whiteSpace=wrap;html=1;fillColor=#6a00ff;strokeColor=#3700CC;fontColor=#ffffff;" parent="1" vertex="1"><mxGeometry x="560" y="313" width="60" height="32" as="geometry"/></mxCell><mxCell id="tkLixBNZ9ediH_jxy_YY-45" value="65536&lt;br&gt;(size)" style="rounded=0;whiteSpace=wrap;html=1;fillColor=#6a00ff;strokeColor=#3700CC;fontColor=#ffffff;" parent="1" vertex="1"><mxGeometry x="620" y="313" width="50" height="32" as="geometry"/></mxCell><mxCell id="tkLixBNZ9ediH_jxy_YY-46" value="Shuffle Data&lt;br&gt;(64KB)" style="rounded=0;whiteSpace=wrap;html=1;fillColor=#6a00ff;strokeColor=#3700CC;fontColor=#ffffff;" parent="1" vertex="1"><mxGeometry x="670" y="313" width="80" height="32" as="geometry"/></mxCell><mxCell id="tkLixBNZ9ediH_jxy_YY-52" value="&lt;span style=&quot;font-size: 16px&quot;&gt;Remote Shuffle Service&lt;/span&gt;" style="text;html=1;strokeColor=none;fillColor=none;align=center;verticalAlign=middle;whiteSpace=wrap;rounded=0;" parent="1" vertex="1"><mxGeometry x="508.75" y="283" width="182.5" height="20" as="geometry"/></mxCell><mxCell id="tkLixBNZ9ediH_jxy_YY-55" value="1&lt;br&gt;(mapId)" style="rounded=0;whiteSpace=wrap;html=1;fillColor=#6a00ff;strokeColor=#3700CC;fontColor=#ffffff;" parent="1" vertex="1"><mxGeometry x="450" y="345" width="50" height="32" as="geometry"/></mxCell><mxCell id="tkLixBNZ9ediH_jxy_YY-56" value="0&lt;br&gt;(attemptId)" style="rounded=0;whiteSpace=wrap;html=1;fillColor=#6a00ff;strokeColor=#3700CC;fontColor=#ffffff;" parent="1" vertex="1"><mxGeometry x="500" y="345" width="60" height="32" as="geometry"/></mxCell><mxCell id="tkLixBNZ9ediH_jxy_YY-57" value="2&lt;br&gt;(batchId)" style="rounded=0;whiteSpace=wrap;html=1;fillColor=#6a00ff;strokeColor=#3700CC;fontColor=#ffffff;" parent="1" vertex="1"><mxGeometry x="560" y="345" width="60" height="32" as="geometry"/></mxCell><mxCell id="tkLixBNZ9ediH_jxy_YY-58" value="65536&lt;br&gt;(size)" style="rounded=0;whiteSpace=wrap;html=1;fillColor=#6a00ff;strokeColor=#3700CC;fontColor=#ffffff;" parent="1" vertex="1"><mxGeometry x="620" y="345" width="50" height="32" as="geometry"/></mxCell><mxCell id="tkLixBNZ9ediH_jxy_YY-59" value="Shuffle Data&lt;br&gt;(64KB)" style="rounded=0;whiteSpace=wrap;html=1;fillColor=#6a00ff;strokeColor=#3700CC;fontColor=#ffffff;" parent="1" vertex="1"><mxGeometry x="670" y="345" width="80" height="32" as="geometry"/></mxCell><mxCell id="tkLixBNZ9ediH_jxy_YY-72" value="" style="rounded=1;whiteSpace=wrap;html=1;fillColor=#dae8fc;strokeColor=#6c8ebf;" parent="1" vertex="1"><mxGeometry x="440" y="113" width="320" height="140" as="geometry"/></mxCell><mxCell id="tkLixBNZ9ediH_jxy_YY-73" value="1&lt;br&gt;(mapId)" style="rounded=0;whiteSpace=wrap;html=1;fillColor=#d80073;strokeColor=#A50040;fontColor=#ffffff;" parent="1" vertex="1"><mxGeometry x="450" y="146" width="50" height="32" as="geometry"/></mxCell><mxCell id="tkLixBNZ9ediH_jxy_YY-74" value="0&lt;br&gt;(attemptId)" style="rounded=0;whiteSpace=wrap;html=1;fillColor=#d80073;strokeColor=#A50040;fontColor=#ffffff;" parent="1" vertex="1"><mxGeometry x="500" y="146" width="60" height="32" as="geometry"/></mxCell><mxCell id="tkLixBNZ9ediH_jxy_YY-75" value="1&lt;br&gt;(batchId)" style="rounded=0;whiteSpace=wrap;html=1;fillColor=#d80073;strokeColor=#A50040;fontColor=#ffffff;" parent="1" vertex="1"><mxGeometry x="560" y="146" width="60" height="32" as="geometry"/></mxCell><mxCell id="tkLixBNZ9ediH_jxy_YY-76" value="65536&lt;br&gt;(size)" style="rounded=0;whiteSpace=wrap;html=1;fillColor=#d80073;strokeColor=#A50040;fontColor=#ffffff;" parent="1" vertex="1"><mxGeometry x="620" y="146" width="50" height="32" as="geometry"/></mxCell><mxCell id="tkLixBNZ9ediH_jxy_YY-77" value="Shuffle Data&lt;br&gt;(64KB)" style="rounded=0;whiteSpace=wrap;html=1;fillColor=#d80073;strokeColor=#A50040;fontColor=#ffffff;" parent="1" vertex="1"><mxGeometry x="670" y="146" width="80" height="32" as="geometry"/></mxCell><mxCell id="tkLixBNZ9ediH_jxy_YY-78" value="&lt;span style=&quot;font-size: 16px&quot;&gt;Remote Shuffle Service&lt;/span&gt;" style="text;html=1;strokeColor=none;fillColor=none;align=center;verticalAlign=middle;whiteSpace=wrap;rounded=0;" parent="1" vertex="1"><mxGeometry x="508.75" y="123" width="182.5" height="20" as="geometry"/></mxCell><mxCell id="tkLixBNZ9ediH_jxy_YY-84" value="" style="rounded=1;whiteSpace=wrap;html=1;fillColor=#dae8fc;strokeColor=#6c8ebf;" parent="1" vertex="1"><mxGeometry x="440" y="474" width="320" height="110" as="geometry"/></mxCell><mxCell id="tkLixBNZ9ediH_jxy_YY-90" value="&lt;span style=&quot;font-size: 16px&quot;&gt;Remote Shuffle Service&lt;/span&gt;" style="text;html=1;strokeColor=none;fillColor=none;align=center;verticalAlign=middle;whiteSpace=wrap;rounded=0;" parent="1" vertex="1"><mxGeometry x="508.75" y="485" width="182.5" height="20" as="geometry"/></mxCell><mxCell id="tkLixBNZ9ediH_jxy_YY-103" value="" style="rounded=1;whiteSpace=wrap;html=1;fillColor=#dae8fc;strokeColor=#6c8ebf;" parent="1" vertex="1"><mxGeometry x="440" y="603.5" width="320" height="110" as="geometry"/></mxCell><mxCell id="tkLixBNZ9ediH_jxy_YY-104" value="1&lt;br&gt;(mapId)" style="rounded=0;whiteSpace=wrap;html=1;fillColor=#008a00;strokeColor=#005700;fontColor=#ffffff;" parent="1" vertex="1"><mxGeometry x="450" y="637" width="50" height="32" as="geometry"/></mxCell><mxCell id="tkLixBNZ9ediH_jxy_YY-105" value="1&lt;br&gt;(attemptId)" style="rounded=0;whiteSpace=wrap;html=1;fillColor=#008a00;strokeColor=#005700;fontColor=#ffffff;" parent="1" vertex="1"><mxGeometry x="500" y="637" width="60" height="32" as="geometry"/></mxCell><mxCell id="tkLixBNZ9ediH_jxy_YY-106" value="2&lt;br&gt;(batchId)" style="rounded=0;whiteSpace=wrap;html=1;fillColor=#008a00;strokeColor=#005700;fontColor=#ffffff;" parent="1" vertex="1"><mxGeometry x="560" y="637" width="60" height="32" as="geometry"/></mxCell><mxCell id="tkLixBNZ9ediH_jxy_YY-107" value="65536&lt;br&gt;(size)" style="rounded=0;whiteSpace=wrap;html=1;fillColor=#008a00;strokeColor=#005700;fontColor=#ffffff;" parent="1" vertex="1"><mxGeometry x="620" y="637" width="50" height="32" as="geometry"/></mxCell><mxCell id="tkLixBNZ9ediH_jxy_YY-108" value="Shuffle Data&lt;br&gt;(64KB)" style="rounded=0;whiteSpace=wrap;html=1;fillColor=#008a00;strokeColor=#005700;fontColor=#ffffff;" parent="1" vertex="1"><mxGeometry x="670" y="637" width="80" height="32" as="geometry"/></mxCell><mxCell id="tkLixBNZ9ediH_jxy_YY-109" value="&lt;span style=&quot;font-size: 16px&quot;&gt;Remote Shuffle Service&lt;/span&gt;" style="text;html=1;strokeColor=none;fillColor=none;align=center;verticalAlign=middle;whiteSpace=wrap;rounded=0;" parent="1" vertex="1"><mxGeometry x="508.75" y="613.5" width="182.5" height="20" as="geometry"/></mxCell><mxCell id="tkLixBNZ9ediH_jxy_YY-110" value="1&lt;br&gt;(mapId)" style="rounded=0;whiteSpace=wrap;html=1;" parent="1" vertex="1"><mxGeometry x="450" y="669" width="50" height="32" as="geometry"/></mxCell><mxCell id="tkLixBNZ9ediH_jxy_YY-111" value="1&lt;br&gt;(attemptId)" style="rounded=0;whiteSpace=wrap;html=1;" parent="1" vertex="1"><mxGeometry x="500" y="669" width="60" height="32" as="geometry"/></mxCell><mxCell id="tkLixBNZ9ediH_jxy_YY-112" value="3&lt;br&gt;(batchId)" style="rounded=0;whiteSpace=wrap;html=1;" parent="1" vertex="1"><mxGeometry x="560" y="669" width="60" height="32" as="geometry"/></mxCell><mxCell id="tkLixBNZ9ediH_jxy_YY-113" value="65536&lt;br&gt;(size)" style="rounded=0;whiteSpace=wrap;html=1;" parent="1" vertex="1"><mxGeometry x="620" y="669" width="50" height="32" as="geometry"/></mxCell><mxCell id="tkLixBNZ9ediH_jxy_YY-114" value="Shuffle Data&lt;br&gt;(64KB)" style="rounded=0;whiteSpace=wrap;html=1;" parent="1" vertex="1"><mxGeometry x="670" y="669" width="80" height="32" as="geometry"/></mxCell><mxCell id="tkLixBNZ9ediH_jxy_YY-116" value="" style="rounded=1;whiteSpace=wrap;html=1;fillColor=#d5e8d4;strokeColor=#82b366;" parent="1" vertex="1"><mxGeometry x="190" y="309" width="140" height="210" as="geometry"/></mxCell><mxCell id="tkLixBNZ9ediH_jxy_YY-117" value="" style="rounded=0;whiteSpace=wrap;html=1;fillColor=#f8cecc;strokeColor=#b85450;gradientColor=#ea6b66;" parent="1" vertex="1"><mxGeometry x="200" y="349" width="120" height="80" as="geometry"/></mxCell><mxCell id="tkLixBNZ9ediH_jxy_YY-118" value="batch 2" style="rounded=0;whiteSpace=wrap;html=1;fillColor=#d80073;strokeColor=#A50040;fontColor=#ffffff;" parent="1" vertex="1"><mxGeometry x="215" y="374" width="90" height="25" as="geometry"/></mxCell><mxCell id="tkLixBNZ9ediH_jxy_YY-119" value="batch 4" style="rounded=0;whiteSpace=wrap;html=1;fillColor=#0050ef;strokeColor=#001DBC;fontColor=#ffffff;" parent="1" vertex="1"><mxGeometry x="215" y="399" width="90" height="25" as="geometry"/></mxCell><mxCell id="tkLixBNZ9ediH_jxy_YY-120" value="&lt;font style=&quot;font-size: 16px&quot;&gt;partition 1&lt;/font&gt;" style="text;html=1;strokeColor=none;fillColor=none;align=center;verticalAlign=middle;whiteSpace=wrap;rounded=0;" parent="1" vertex="1"><mxGeometry x="225" y="352" width="75" height="20" as="geometry"/></mxCell><mxCell id="tkLixBNZ9ediH_jxy_YY-121" value="" style="rounded=0;whiteSpace=wrap;html=1;fillColor=#ffcd28;strokeColor=#d79b00;gradientColor=#ffa500;" parent="1" vertex="1"><mxGeometry x="200" y="429" width="120" height="80" as="geometry"/></mxCell><mxCell id="tkLixBNZ9ediH_jxy_YY-122" value="batch 1" style="rounded=0;whiteSpace=wrap;html=1;fillColor=#6a00ff;strokeColor=#3700CC;fontColor=#ffffff;" parent="1" vertex="1"><mxGeometry x="215" y="452.5" width="90" height="25" as="geometry"/></mxCell><mxCell id="tkLixBNZ9ediH_jxy_YY-123" value="batch 3" style="rounded=0;whiteSpace=wrap;html=1;fillColor=#a20025;strokeColor=#6F0000;fontColor=#ffffff;" parent="1" vertex="1"><mxGeometry x="215" y="477.5" width="90" height="25" as="geometry"/></mxCell><mxCell id="tkLixBNZ9ediH_jxy_YY-124" value="&lt;font style=&quot;font-size: 16px&quot;&gt;partition 2&lt;/font&gt;" style="text;html=1;strokeColor=none;fillColor=none;align=center;verticalAlign=middle;whiteSpace=wrap;rounded=0;" parent="1" vertex="1"><mxGeometry x="222.5" y="432.5" width="75" height="20" as="geometry"/></mxCell><mxCell id="tkLixBNZ9ediH_jxy_YY-125" value="&lt;font style=&quot;font-size: 16px&quot;&gt;mapper 2.0&lt;/font&gt;" style="text;html=1;strokeColor=none;fillColor=none;align=center;verticalAlign=middle;whiteSpace=wrap;rounded=0;" parent="1" vertex="1"><mxGeometry x="217.5" y="319" width="85" height="20" as="geometry"/></mxCell><mxCell id="tkLixBNZ9ediH_jxy_YY-126" value="" style="rounded=1;whiteSpace=wrap;html=1;fillColor=#d5e8d4;strokeColor=#82b366;" parent="1" vertex="1"><mxGeometry x="190" y="529" width="140" height="210" as="geometry"/></mxCell><mxCell id="tkLixBNZ9ediH_jxy_YY-127" value="" style="rounded=0;whiteSpace=wrap;html=1;fillColor=#f8cecc;strokeColor=#b85450;gradientColor=#ea6b66;" parent="1" vertex="1"><mxGeometry x="200" y="569" width="120" height="80" as="geometry"/></mxCell><mxCell id="tkLixBNZ9ediH_jxy_YY-128" value="batch 1" style="rounded=0;whiteSpace=wrap;html=1;fillColor=#60a917;strokeColor=#2D7600;fontColor=#ffffff;" parent="1" vertex="1"><mxGeometry x="215" y="594" width="90" height="25" as="geometry"/></mxCell><mxCell id="tkLixBNZ9ediH_jxy_YY-129" value="batch 4" style="rounded=0;whiteSpace=wrap;html=1;fillColor=#1ba1e2;strokeColor=#006EAF;fontColor=#ffffff;" parent="1" vertex="1"><mxGeometry x="215" y="619" width="90" height="25" as="geometry"/></mxCell><mxCell id="tkLixBNZ9ediH_jxy_YY-130" value="&lt;font style=&quot;font-size: 16px&quot;&gt;partition 1&lt;/font&gt;" style="text;html=1;strokeColor=none;fillColor=none;align=center;verticalAlign=middle;whiteSpace=wrap;rounded=0;" parent="1" vertex="1"><mxGeometry x="225" y="572" width="75" height="20" as="geometry"/></mxCell><mxCell id="tkLixBNZ9ediH_jxy_YY-131" value="" style="rounded=0;whiteSpace=wrap;html=1;fillColor=#ffcd28;strokeColor=#d79b00;gradientColor=#ffa500;" parent="1" vertex="1"><mxGeometry x="200" y="649" width="120" height="80" as="geometry"/></mxCell><mxCell id="tkLixBNZ9ediH_jxy_YY-132" value="batch 2" style="rounded=0;whiteSpace=wrap;html=1;fillColor=#008a00;strokeColor=#005700;fontColor=#ffffff;" parent="1" vertex="1"><mxGeometry x="215" y="672.5" width="90" height="25" as="geometry"/></mxCell><mxCell id="tkLixBNZ9ediH_jxy_YY-133" value="batch 3" style="rounded=0;whiteSpace=wrap;html=1;" parent="1" vertex="1"><mxGeometry x="215" y="697.5" width="90" height="25" as="geometry"/></mxCell><mxCell id="tkLixBNZ9ediH_jxy_YY-134" value="&lt;font style=&quot;font-size: 16px&quot;&gt;partition 2&lt;/font&gt;" style="text;html=1;strokeColor=none;fillColor=none;align=center;verticalAlign=middle;whiteSpace=wrap;rounded=0;" parent="1" vertex="1"><mxGeometry x="222.5" y="652.5" width="75" height="20" as="geometry"/></mxCell><mxCell id="tkLixBNZ9ediH_jxy_YY-135" value="&lt;font style=&quot;font-size: 16px&quot;&gt;mapper 1.1&lt;/font&gt;" style="text;html=1;strokeColor=none;fillColor=none;align=center;verticalAlign=middle;whiteSpace=wrap;rounded=0;" parent="1" vertex="1"><mxGeometry x="217.5" y="539" width="85" height="20" as="geometry"/></mxCell><mxCell id="tkLixBNZ9ediH_jxy_YY-136" value="2&lt;br&gt;(mapId)" style="rounded=0;whiteSpace=wrap;html=1;fillColor=#d80073;strokeColor=#A50040;fontColor=#ffffff;" parent="1" vertex="1"><mxGeometry x="450" y="178" width="50" height="32" as="geometry"/></mxCell><mxCell id="tkLixBNZ9ediH_jxy_YY-137" value="0&lt;br&gt;(attemptId)" style="rounded=0;whiteSpace=wrap;html=1;fillColor=#d80073;strokeColor=#A50040;fontColor=#ffffff;" parent="1" vertex="1"><mxGeometry x="500" y="178" width="60" height="32" as="geometry"/></mxCell><mxCell id="tkLixBNZ9ediH_jxy_YY-138" value="2&lt;br&gt;(batchId)" style="rounded=0;whiteSpace=wrap;html=1;fillColor=#d80073;strokeColor=#A50040;fontColor=#ffffff;" parent="1" vertex="1"><mxGeometry x="560" y="178" width="60" height="32" as="geometry"/></mxCell><mxCell id="tkLixBNZ9ediH_jxy_YY-139" value="65536&lt;br&gt;(size)" style="rounded=0;whiteSpace=wrap;html=1;fillColor=#d80073;strokeColor=#A50040;fontColor=#ffffff;" parent="1" vertex="1"><mxGeometry x="620" y="178" width="50" height="32" as="geometry"/></mxCell><mxCell id="tkLixBNZ9ediH_jxy_YY-140" value="Shuffle Data&lt;br&gt;(64KB)" style="rounded=0;whiteSpace=wrap;html=1;fillColor=#d80073;strokeColor=#A50040;fontColor=#ffffff;" parent="1" vertex="1"><mxGeometry x="670" y="178" width="80" height="32" as="geometry"/></mxCell><mxCell id="tkLixBNZ9ediH_jxy_YY-141" value="2&lt;br&gt;(mapId)" style="rounded=0;whiteSpace=wrap;html=1;fillColor=#0050ef;strokeColor=#001DBC;fontColor=#ffffff;" parent="1" vertex="1"><mxGeometry x="450" y="210" width="50" height="32" as="geometry"/></mxCell><mxCell id="tkLixBNZ9ediH_jxy_YY-142" value="0&lt;br&gt;(attemptId)" style="rounded=0;whiteSpace=wrap;html=1;fillColor=#0050ef;strokeColor=#001DBC;fontColor=#ffffff;" parent="1" vertex="1"><mxGeometry x="500" y="210" width="60" height="32" as="geometry"/></mxCell><mxCell id="tkLixBNZ9ediH_jxy_YY-143" value="4&lt;br&gt;(batchId)" style="rounded=0;whiteSpace=wrap;html=1;fillColor=#0050ef;strokeColor=#001DBC;fontColor=#ffffff;" parent="1" vertex="1"><mxGeometry x="560" y="210" width="60" height="32" as="geometry"/></mxCell><mxCell id="tkLixBNZ9ediH_jxy_YY-144" value="65536&lt;br&gt;(size)" style="rounded=0;whiteSpace=wrap;html=1;fillColor=#0050ef;strokeColor=#001DBC;fontColor=#ffffff;" parent="1" vertex="1"><mxGeometry x="620" y="210" width="50" height="32" as="geometry"/></mxCell><mxCell id="tkLixBNZ9ediH_jxy_YY-145" value="Shuffle Data&lt;br&gt;(64KB)" style="rounded=0;whiteSpace=wrap;html=1;fillColor=#0050ef;strokeColor=#001DBC;fontColor=#ffffff;" parent="1" vertex="1"><mxGeometry x="670" y="210" width="80" height="32" as="geometry"/></mxCell><mxCell id="tkLixBNZ9ediH_jxy_YY-146" value="1&lt;br&gt;(mapId)" style="rounded=0;whiteSpace=wrap;html=1;fillColor=#a20025;strokeColor=#6F0000;fontColor=#ffffff;" parent="1" vertex="1"><mxGeometry x="450" y="377" width="50" height="32" as="geometry"/></mxCell><mxCell id="tkLixBNZ9ediH_jxy_YY-147" value="0&lt;br&gt;(attemptId)" style="rounded=0;whiteSpace=wrap;html=1;fillColor=#a20025;strokeColor=#6F0000;fontColor=#ffffff;" parent="1" vertex="1"><mxGeometry x="500" y="377" width="60" height="32" as="geometry"/></mxCell><mxCell id="tkLixBNZ9ediH_jxy_YY-148" value="3&lt;br&gt;(batchId)" style="rounded=0;whiteSpace=wrap;html=1;fillColor=#a20025;strokeColor=#6F0000;fontColor=#ffffff;" parent="1" vertex="1"><mxGeometry x="560" y="377" width="60" height="32" as="geometry"/></mxCell><mxCell id="tkLixBNZ9ediH_jxy_YY-149" value="65536&lt;br&gt;(size)" style="rounded=0;whiteSpace=wrap;html=1;fillColor=#a20025;strokeColor=#6F0000;fontColor=#ffffff;" parent="1" vertex="1"><mxGeometry x="620" y="377" width="50" height="32" as="geometry"/></mxCell><mxCell id="tkLixBNZ9ediH_jxy_YY-150" value="Shuffle Data&lt;br&gt;(64KB)" style="rounded=0;whiteSpace=wrap;html=1;fillColor=#a20025;strokeColor=#6F0000;fontColor=#ffffff;" parent="1" vertex="1"><mxGeometry x="670" y="377" width="80" height="32" as="geometry"/></mxCell><mxCell id="tkLixBNZ9ediH_jxy_YY-151" value="2&lt;br&gt;(mapId)" style="rounded=0;whiteSpace=wrap;html=1;fillColor=#a20025;strokeColor=#6F0000;fontColor=#ffffff;" parent="1" vertex="1"><mxGeometry x="450" y="409" width="50" height="32" as="geometry"/></mxCell><mxCell id="tkLixBNZ9ediH_jxy_YY-152" value="0&lt;br&gt;(attemptId)" style="rounded=0;whiteSpace=wrap;html=1;fillColor=#a20025;strokeColor=#6F0000;fontColor=#ffffff;" parent="1" vertex="1"><mxGeometry x="500" y="409" width="60" height="32" as="geometry"/></mxCell><mxCell id="tkLixBNZ9ediH_jxy_YY-153" value="3&lt;br&gt;(batchId)" style="rounded=0;whiteSpace=wrap;html=1;fillColor=#a20025;strokeColor=#6F0000;fontColor=#ffffff;" parent="1" vertex="1"><mxGeometry x="560" y="409" width="60" height="32" as="geometry"/></mxCell><mxCell id="tkLixBNZ9ediH_jxy_YY-154" value="65536&lt;br&gt;(size)" style="rounded=0;whiteSpace=wrap;html=1;fillColor=#a20025;strokeColor=#6F0000;fontColor=#ffffff;" parent="1" vertex="1"><mxGeometry x="620" y="409" width="50" height="32" as="geometry"/></mxCell><mxCell id="tkLixBNZ9ediH_jxy_YY-155" value="Shuffle Data&lt;br&gt;(64KB)" style="rounded=0;whiteSpace=wrap;html=1;fillColor=#a20025;strokeColor=#6F0000;fontColor=#ffffff;" parent="1" vertex="1"><mxGeometry x="670" y="409" width="80" height="32" as="geometry"/></mxCell><mxCell id="tkLixBNZ9ediH_jxy_YY-156" value="1&lt;br&gt;(mapId)" style="rounded=0;whiteSpace=wrap;html=1;fillColor=#60a917;strokeColor=#2D7600;fontColor=#ffffff;" parent="1" vertex="1"><mxGeometry x="450" y="511.5" width="50" height="32" as="geometry"/></mxCell><mxCell id="tkLixBNZ9ediH_jxy_YY-157" value="1&lt;br&gt;(attemptId)" style="rounded=0;whiteSpace=wrap;html=1;fillColor=#60a917;strokeColor=#2D7600;fontColor=#ffffff;" parent="1" vertex="1"><mxGeometry x="500" y="511.5" width="60" height="32" as="geometry"/></mxCell><mxCell id="tkLixBNZ9ediH_jxy_YY-158" value="1&lt;br&gt;(batchId)" style="rounded=0;whiteSpace=wrap;html=1;fillColor=#60a917;strokeColor=#2D7600;fontColor=#ffffff;" parent="1" vertex="1"><mxGeometry x="560" y="511.5" width="60" height="32" as="geometry"/></mxCell><mxCell id="tkLixBNZ9ediH_jxy_YY-159" value="65536&lt;br&gt;(size)" style="rounded=0;whiteSpace=wrap;html=1;fillColor=#60a917;strokeColor=#2D7600;fontColor=#ffffff;" parent="1" vertex="1"><mxGeometry x="620" y="511.5" width="50" height="32" as="geometry"/></mxCell><mxCell id="tkLixBNZ9ediH_jxy_YY-160" value="Shuffle Data&lt;br&gt;(64KB)" style="rounded=0;whiteSpace=wrap;html=1;fillColor=#60a917;strokeColor=#2D7600;fontColor=#ffffff;" parent="1" vertex="1"><mxGeometry x="670" y="511.5" width="80" height="32" as="geometry"/></mxCell><mxCell id="tkLixBNZ9ediH_jxy_YY-161" value="1&lt;br&gt;(mapId)" style="rounded=0;whiteSpace=wrap;html=1;fillColor=#1ba1e2;strokeColor=#006EAF;fontColor=#ffffff;" parent="1" vertex="1"><mxGeometry x="450" y="543.5" width="50" height="32" as="geometry"/></mxCell><mxCell id="tkLixBNZ9ediH_jxy_YY-162" value="1&lt;br&gt;(attemptId)" style="rounded=0;whiteSpace=wrap;html=1;fillColor=#1ba1e2;strokeColor=#006EAF;fontColor=#ffffff;" parent="1" vertex="1"><mxGeometry x="500" y="543.5" width="60" height="32" as="geometry"/></mxCell><mxCell id="tkLixBNZ9ediH_jxy_YY-163" value="4&lt;br&gt;(batchId)" style="rounded=0;whiteSpace=wrap;html=1;fillColor=#1ba1e2;strokeColor=#006EAF;fontColor=#ffffff;" parent="1" vertex="1"><mxGeometry x="560" y="543.5" width="60" height="32" as="geometry"/></mxCell><mxCell id="tkLixBNZ9ediH_jxy_YY-164" value="65536&lt;br&gt;(size)" style="rounded=0;whiteSpace=wrap;html=1;fillColor=#1ba1e2;strokeColor=#006EAF;fontColor=#ffffff;" parent="1" vertex="1"><mxGeometry x="620" y="543.5" width="50" height="32" as="geometry"/></mxCell><mxCell id="tkLixBNZ9ediH_jxy_YY-165" value="Shuffle Data&lt;br&gt;(64KB)" style="rounded=0;whiteSpace=wrap;html=1;fillColor=#1ba1e2;strokeColor=#006EAF;fontColor=#ffffff;" parent="1" vertex="1"><mxGeometry x="670" y="543.5" width="80" height="32" as="geometry"/></mxCell><mxCell id="tkLixBNZ9ediH_jxy_YY-167" value="" style="endArrow=classic;html=1;fontColor=#FFFFFF;exitX=1;exitY=0.5;exitDx=0;exitDy=0;entryX=0;entryY=0.5;entryDx=0;entryDy=0;" parent="1" source="tkLixBNZ9ediH_jxy_YY-15" target="tkLixBNZ9ediH_jxy_YY-73" edge="1"><mxGeometry width="50" height="50" relative="1" as="geometry"><mxPoint x="360" y="240" as="sourcePoint"/><mxPoint x="400" y="210" as="targetPoint"/></mxGeometry></mxCell><mxCell id="tkLixBNZ9ediH_jxy_YY-168" value="" style="endArrow=classic;html=1;fontColor=#FFFFFF;exitX=1;exitY=0.5;exitDx=0;exitDy=0;entryX=0;entryY=0.5;entryDx=0;entryDy=0;" parent="1" source="tkLixBNZ9ediH_jxy_YY-118" target="tkLixBNZ9ediH_jxy_YY-136" edge="1"><mxGeometry width="50" height="50" relative="1" as="geometry"><mxPoint x="315" y="176.5" as="sourcePoint"/><mxPoint x="410" y="190" as="targetPoint"/></mxGeometry></mxCell><mxCell id="tkLixBNZ9ediH_jxy_YY-169" value="" style="endArrow=classic;html=1;fontColor=#FFFFFF;exitX=1;exitY=0.5;exitDx=0;exitDy=0;entryX=0;entryY=0.5;entryDx=0;entryDy=0;" parent="1" source="tkLixBNZ9ediH_jxy_YY-119" target="tkLixBNZ9ediH_jxy_YY-141" edge="1"><mxGeometry width="50" height="50" relative="1" as="geometry"><mxPoint x="315" y="396.5" as="sourcePoint"/><mxPoint x="460" y="204" as="targetPoint"/></mxGeometry></mxCell><mxCell id="tkLixBNZ9ediH_jxy_YY-170" value="" style="endArrow=classic;html=1;fontColor=#FFFFFF;exitX=1;exitY=0.5;exitDx=0;exitDy=0;entryX=0;entryY=0.5;entryDx=0;entryDy=0;" parent="1" source="tkLixBNZ9ediH_jxy_YY-19" target="tkLixBNZ9ediH_jxy_YY-55" edge="1"><mxGeometry width="50" height="50" relative="1" as="geometry"><mxPoint x="315" y="176.5" as="sourcePoint"/><mxPoint x="460" y="172" as="targetPoint"/></mxGeometry></mxCell><mxCell id="tkLixBNZ9ediH_jxy_YY-171" value="" style="endArrow=classic;html=1;fontColor=#FFFFFF;exitX=1;exitY=0.5;exitDx=0;exitDy=0;entryX=0;entryY=0.5;entryDx=0;entryDy=0;" parent="1" source="tkLixBNZ9ediH_jxy_YY-122" target="tkLixBNZ9ediH_jxy_YY-42" edge="1"><mxGeometry width="50" height="50" relative="1" as="geometry"><mxPoint x="315" y="255" as="sourcePoint"/><mxPoint x="460" y="371" as="targetPoint"/></mxGeometry></mxCell><mxCell id="tkLixBNZ9ediH_jxy_YY-172" value="" style="endArrow=classic;html=1;fontColor=#FFFFFF;exitX=1;exitY=0.5;exitDx=0;exitDy=0;entryX=0;entryY=0.5;entryDx=0;entryDy=0;" parent="1" source="tkLixBNZ9ediH_jxy_YY-123" target="tkLixBNZ9ediH_jxy_YY-151" edge="1"><mxGeometry width="50" height="50" relative="1" as="geometry"><mxPoint x="315" y="475" as="sourcePoint"/><mxPoint x="460" y="339" as="targetPoint"/></mxGeometry></mxCell><mxCell id="tkLixBNZ9ediH_jxy_YY-173" value="" style="endArrow=classic;html=1;fontColor=#FFFFFF;entryX=0;entryY=0.5;entryDx=0;entryDy=0;" parent="1" target="tkLixBNZ9ediH_jxy_YY-146" edge="1"><mxGeometry width="50" height="50" relative="1" as="geometry"><mxPoint x="300" y="270" as="sourcePoint"/><mxPoint x="460" y="435" as="targetPoint"/></mxGeometry></mxCell><mxCell id="tkLixBNZ9ediH_jxy_YY-174" value="" style="endArrow=classic;html=1;fontColor=#FFFFFF;exitX=1;exitY=0.5;exitDx=0;exitDy=0;entryX=0;entryY=0.5;entryDx=0;entryDy=0;" parent="1" source="tkLixBNZ9ediH_jxy_YY-128" target="tkLixBNZ9ediH_jxy_YY-156" edge="1"><mxGeometry width="50" height="50" relative="1" as="geometry"><mxPoint x="315" y="500" as="sourcePoint"/><mxPoint x="460" y="435" as="targetPoint"/></mxGeometry></mxCell><mxCell id="tkLixBNZ9ediH_jxy_YY-175" value="" style="endArrow=classic;html=1;fontColor=#FFFFFF;exitX=1;exitY=0.5;exitDx=0;exitDy=0;entryX=0;entryY=0.5;entryDx=0;entryDy=0;" parent="1" source="tkLixBNZ9ediH_jxy_YY-129" target="tkLixBNZ9ediH_jxy_YY-161" edge="1"><mxGeometry width="50" height="50" relative="1" as="geometry"><mxPoint x="315" y="616.5" as="sourcePoint"/><mxPoint x="460" y="537.5" as="targetPoint"/></mxGeometry></mxCell><mxCell id="tkLixBNZ9ediH_jxy_YY-176" value="" style="endArrow=classic;html=1;fontColor=#FFFFFF;exitX=1;exitY=0.5;exitDx=0;exitDy=0;entryX=0;entryY=0.5;entryDx=0;entryDy=0;" parent="1" source="tkLixBNZ9ediH_jxy_YY-132" target="tkLixBNZ9ediH_jxy_YY-104" edge="1"><mxGeometry width="50" height="50" relative="1" as="geometry"><mxPoint x="315" y="641.5" as="sourcePoint"/><mxPoint x="460" y="569.5" as="targetPoint"/></mxGeometry></mxCell><mxCell id="tkLixBNZ9ediH_jxy_YY-177" value="" style="endArrow=classic;html=1;fontColor=#FFFFFF;exitX=1;exitY=0.5;exitDx=0;exitDy=0;entryX=0;entryY=0.5;entryDx=0;entryDy=0;" parent="1" source="tkLixBNZ9ediH_jxy_YY-133" target="tkLixBNZ9ediH_jxy_YY-110" edge="1"><mxGeometry width="50" height="50" relative="1" as="geometry"><mxPoint x="315" y="695" as="sourcePoint"/><mxPoint x="460" y="663" as="targetPoint"/></mxGeometry></mxCell><mxCell id="tkLixBNZ9ediH_jxy_YY-179" value="" style="endArrow=classic;html=1;fontColor=#000000;exitX=1;exitY=0.5;exitDx=0;exitDy=0;entryX=0;entryY=0.313;entryDx=0;entryDy=0;dashed=1;entryPerimeter=0;" parent="1" source="tkLixBNZ9ediH_jxy_YY-16" target="tkLixBNZ9ediH_jxy_YY-141" edge="1"><mxGeometry width="50" height="50" relative="1" as="geometry"><mxPoint x="600" y="440" as="sourcePoint"/><mxPoint x="650" y="390" as="targetPoint"/></mxGeometry></mxCell><mxCell id="tkLixBNZ9ediH_jxy_YY-180" value="&lt;font style=&quot;font-size: 16px&quot;&gt;X&lt;/font&gt;" style="edgeLabel;html=1;align=center;verticalAlign=middle;resizable=0;points=[];fontColor=#FF0000;" parent="tkLixBNZ9ediH_jxy_YY-179" vertex="1" connectable="0"><mxGeometry x="-0.1723" y="-2" relative="1" as="geometry"><mxPoint x="5" y="-2" as="offset"/></mxGeometry></mxCell><mxCell id="tkLixBNZ9ediH_jxy_YY-181" value="Shuffle Data&lt;br&gt;(64KB)" style="rounded=0;whiteSpace=wrap;html=1;fillColor=#0050ef;strokeColor=#001DBC;fontColor=#ffffff;" parent="1" vertex="1"><mxGeometry x="880" y="279.75" width="80" height="32" as="geometry"/></mxCell><mxCell id="tkLixBNZ9ediH_jxy_YY-182" value="Shuffle Data&lt;br&gt;(64KB)" style="rounded=0;whiteSpace=wrap;html=1;fillColor=#d80073;strokeColor=#A50040;fontColor=#ffffff;" parent="1" vertex="1"><mxGeometry x="880" y="247.75" width="80" height="32" as="geometry"/></mxCell><mxCell id="tkLixBNZ9ediH_jxy_YY-183" value="Shuffle Data&lt;br&gt;(64KB)" style="rounded=0;whiteSpace=wrap;html=1;fillColor=#60a917;strokeColor=#2D7600;fontColor=#ffffff;" parent="1" vertex="1"><mxGeometry x="880" y="312.25" width="80" height="32" as="geometry"/></mxCell><mxCell id="tkLixBNZ9ediH_jxy_YY-184" value="Shuffle Data&lt;br&gt;(64KB)" style="rounded=0;whiteSpace=wrap;html=1;fillColor=#1ba1e2;strokeColor=#006EAF;fontColor=#ffffff;" parent="1" vertex="1"><mxGeometry x="880" y="344.25" width="80" height="32" as="geometry"/></mxCell><mxCell id="tkLixBNZ9ediH_jxy_YY-185" value="Shuffle Data&lt;br&gt;(64KB)" style="rounded=0;whiteSpace=wrap;html=1;fillColor=#6a00ff;strokeColor=#3700CC;fontColor=#ffffff;" parent="1" vertex="1"><mxGeometry x="880" y="432.25" width="80" height="32" as="geometry"/></mxCell><mxCell id="tkLixBNZ9ediH_jxy_YY-186" value="Shuffle Data&lt;br&gt;(64KB)" style="rounded=0;whiteSpace=wrap;html=1;fillColor=#a20025;strokeColor=#6F0000;fontColor=#ffffff;" parent="1" vertex="1"><mxGeometry x="880" y="464.25" width="80" height="32" as="geometry"/></mxCell><mxCell id="tkLixBNZ9ediH_jxy_YY-187" value="Shuffle Data&lt;br&gt;(64KB)" style="rounded=0;whiteSpace=wrap;html=1;fillColor=#008a00;strokeColor=#005700;fontColor=#ffffff;" parent="1" vertex="1"><mxGeometry x="880" y="496.25" width="80" height="32" as="geometry"/></mxCell><mxCell id="tkLixBNZ9ediH_jxy_YY-188" value="Shuffle Data&lt;br&gt;(64KB)" style="rounded=0;whiteSpace=wrap;html=1;" parent="1" vertex="1"><mxGeometry x="880" y="529.25" width="80" height="32" as="geometry"/></mxCell><mxCell id="tkLixBNZ9ediH_jxy_YY-190" value="&lt;font style=&quot;font-size: 16px&quot;&gt;reducer 1&lt;/font&gt;" style="text;html=1;strokeColor=none;fillColor=none;align=center;verticalAlign=middle;whiteSpace=wrap;rounded=0;" parent="1" vertex="1"><mxGeometry x="877.5" y="221.75" width="85" height="20" as="geometry"/></mxCell><mxCell id="tkLixBNZ9ediH_jxy_YY-193" value="" style="endArrow=classic;html=1;fontColor=#000000;exitX=1;exitY=0.5;exitDx=0;exitDy=0;entryX=0;entryY=0.5;entryDx=0;entryDy=0;dashed=1;" parent="1" source="tkLixBNZ9ediH_jxy_YY-77" target="tkLixBNZ9ediH_jxy_YY-189" edge="1"><mxGeometry width="50" height="50" relative="1" as="geometry"><mxPoint x="852.5" y="151.5" as="sourcePoint"/><mxPoint x="987.5" y="143" as="targetPoint"/></mxGeometry></mxCell><mxCell id="tkLixBNZ9ediH_jxy_YY-194" value="&lt;font style=&quot;font-size: 16px&quot;&gt;Skip&lt;/font&gt;" style="edgeLabel;html=1;align=center;verticalAlign=middle;resizable=0;points=[];fontColor=#FF0000;" parent="tkLixBNZ9ediH_jxy_YY-193" vertex="1" connectable="0"><mxGeometry x="-0.1723" y="-2" relative="1" as="geometry"><mxPoint x="32" y="37" as="offset"/></mxGeometry></mxCell><mxCell id="tkLixBNZ9ediH_jxy_YY-195" value="" style="endArrow=classic;html=1;fontColor=#FFFFFF;exitX=1;exitY=0.5;exitDx=0;exitDy=0;entryX=0;entryY=0.5;entryDx=0;entryDy=0;" parent="1" source="tkLixBNZ9ediH_jxy_YY-140" target="tkLixBNZ9ediH_jxy_YY-189" edge="1"><mxGeometry width="50" height="50" relative="1" as="geometry"><mxPoint x="880" y="150.5" as="sourcePoint"/><mxPoint x="810" y="330" as="targetPoint"/><Array as="points"><mxPoint x="810" y="302"/></Array></mxGeometry></mxCell><mxCell id="tkLixBNZ9ediH_jxy_YY-196" value="" style="endArrow=classic;html=1;fontColor=#FFFFFF;exitX=1;exitY=0.5;exitDx=0;exitDy=0;entryX=0;entryY=0.5;entryDx=0;entryDy=0;" parent="1" source="tkLixBNZ9ediH_jxy_YY-145" target="tkLixBNZ9ediH_jxy_YY-189" edge="1"><mxGeometry width="50" height="50" relative="1" as="geometry"><mxPoint x="760" y="204" as="sourcePoint"/><mxPoint x="880" y="311.75" as="targetPoint"/><Array as="points"><mxPoint x="810" y="302"/></Array></mxGeometry></mxCell><mxCell id="tkLixBNZ9ediH_jxy_YY-197" value="" style="endArrow=classic;html=1;fontColor=#FFFFFF;exitX=1;exitY=0.5;exitDx=0;exitDy=0;entryX=0;entryY=0.5;entryDx=0;entryDy=0;" parent="1" source="tkLixBNZ9ediH_jxy_YY-160" target="tkLixBNZ9ediH_jxy_YY-189" edge="1"><mxGeometry width="50" height="50" relative="1" as="geometry"><mxPoint x="760" y="204" as="sourcePoint"/><mxPoint x="850" y="320" as="targetPoint"/><Array as="points"><mxPoint x="810" y="302"/></Array></mxGeometry></mxCell><mxCell id="tkLixBNZ9ediH_jxy_YY-198" value="" style="endArrow=classic;html=1;fontColor=#FFFFFF;exitX=1;exitY=0.5;exitDx=0;exitDy=0;entryX=0;entryY=0.5;entryDx=0;entryDy=0;" parent="1" source="tkLixBNZ9ediH_jxy_YY-165" target="tkLixBNZ9ediH_jxy_YY-189" edge="1"><mxGeometry width="50" height="50" relative="1" as="geometry"><mxPoint x="760" y="537.5" as="sourcePoint"/><mxPoint x="880" y="311.75" as="targetPoint"/><Array as="points"><mxPoint x="810" y="302"/></Array></mxGeometry></mxCell><mxCell id="tkLixBNZ9ediH_jxy_YY-199" value="" style="endArrow=classic;html=1;fontColor=#000000;exitX=1;exitY=0.5;exitDx=0;exitDy=0;entryX=0;entryY=0.5;entryDx=0;entryDy=0;dashed=1;" parent="1" source="tkLixBNZ9ediH_jxy_YY-59" target="tkLixBNZ9ediH_jxy_YY-191" edge="1"><mxGeometry width="50" height="50" relative="1" as="geometry"><mxPoint x="750" y="269.25" as="sourcePoint"/><mxPoint x="870" y="409" as="targetPoint"/><Array as="points"><mxPoint x="820" y="390"/></Array></mxGeometry></mxCell><mxCell id="tkLixBNZ9ediH_jxy_YY-200" value="&lt;font style=&quot;font-size: 16px&quot;&gt;Skip&lt;/font&gt;" style="edgeLabel;html=1;align=center;verticalAlign=middle;resizable=0;points=[];fontColor=#FF0000;" parent="tkLixBNZ9ediH_jxy_YY-199" vertex="1" connectable="0"><mxGeometry x="-0.1723" y="-2" relative="1" as="geometry"><mxPoint x="22" y="34" as="offset"/></mxGeometry></mxCell><mxCell id="tkLixBNZ9ediH_jxy_YY-201" value="" style="endArrow=classic;html=1;fontColor=#000000;exitX=1;exitY=0.5;exitDx=0;exitDy=0;entryX=0;entryY=0.5;entryDx=0;entryDy=0;dashed=1;" parent="1" source="tkLixBNZ9ediH_jxy_YY-150" target="tkLixBNZ9ediH_jxy_YY-191" edge="1"><mxGeometry width="50" height="50" relative="1" as="geometry"><mxPoint x="760" y="371" as="sourcePoint"/><mxPoint x="880" y="494.25" as="targetPoint"/><Array as="points"><mxPoint x="820" y="393"/></Array></mxGeometry></mxCell><mxCell id="tkLixBNZ9ediH_jxy_YY-203" value="" style="endArrow=classic;html=1;fontColor=#FFFFFF;exitX=1;exitY=0.5;exitDx=0;exitDy=0;entryX=0;entryY=0.5;entryDx=0;entryDy=0;" parent="1" source="tkLixBNZ9ediH_jxy_YY-114" target="tkLixBNZ9ediH_jxy_YY-191" edge="1"><mxGeometry width="50" height="50" relative="1" as="geometry"><mxPoint x="840" y="822.88" as="sourcePoint"/><mxPoint x="960" y="597.13" as="targetPoint"/><Array as="points"><mxPoint x="810" y="484"/></Array></mxGeometry></mxCell><mxCell id="tkLixBNZ9ediH_jxy_YY-204" value="" style="endArrow=classic;html=1;fontColor=#FFFFFF;exitX=1;exitY=0.5;exitDx=0;exitDy=0;entryX=0;entryY=0.5;entryDx=0;entryDy=0;" parent="1" source="tkLixBNZ9ediH_jxy_YY-108" target="tkLixBNZ9ediH_jxy_YY-191" edge="1"><mxGeometry width="50" height="50" relative="1" as="geometry"><mxPoint x="760" y="695" as="sourcePoint"/><mxPoint x="880" y="494.25" as="targetPoint"/><Array as="points"><mxPoint x="810" y="484"/></Array></mxGeometry></mxCell><mxCell id="tkLixBNZ9ediH_jxy_YY-205" value="" style="endArrow=classic;html=1;fontColor=#FFFFFF;exitX=1;exitY=0.5;exitDx=0;exitDy=0;entryX=0;entryY=0.5;entryDx=0;entryDy=0;" parent="1" source="tkLixBNZ9ediH_jxy_YY-46" target="tkLixBNZ9ediH_jxy_YY-191" edge="1"><mxGeometry width="50" height="50" relative="1" as="geometry"><mxPoint x="760" y="663" as="sourcePoint"/><mxPoint x="880" y="494.25" as="targetPoint"/><Array as="points"><mxPoint x="810" y="484"/></Array></mxGeometry></mxCell><mxCell id="tkLixBNZ9ediH_jxy_YY-206" value="" style="endArrow=classic;html=1;fontColor=#FFFFFF;exitX=1;exitY=0.5;exitDx=0;exitDy=0;entryX=0;entryY=0.5;entryDx=0;entryDy=0;" parent="1" source="tkLixBNZ9ediH_jxy_YY-155" target="tkLixBNZ9ediH_jxy_YY-191" edge="1"><mxGeometry width="50" height="50" relative="1" as="geometry"><mxPoint x="760" y="339" as="sourcePoint"/><mxPoint x="880" y="494.25" as="targetPoint"/><Array as="points"><mxPoint x="810" y="484"/></Array></mxGeometry></mxCell></root></mxGraphModel></diagram></mxfile>